<svg width="402" height="68" viewBox="0 0 402 68" fill="none" xmlns="http://www.w3.org/2000/svg">
<path d="M0 67.0632V0.904513H25.9915C30.9668 0.904513 35.2129 1.79826 38.7299 3.58575C42.2684 5.3517 44.9597 7.86065 46.804 11.1126C48.6698 14.343 49.6026 18.1441 49.6026 22.5159C49.6026 26.9093 48.659 30.6888 46.7719 33.8546C44.8847 36.9989 42.1504 39.4109 38.5691 41.0907C35.0092 42.7705 30.6987 43.6104 25.6377 43.6104H8.23494V32.3686H23.3859C26.0451 32.3686 28.254 32.0025 30.0125 31.2703C31.771 30.5381 33.0791 29.4397 33.9369 27.9753C34.8162 26.5108 35.2558 24.6911 35.2558 22.5159C35.2558 20.3192 34.8162 18.4671 33.9369 16.9596C33.0791 15.4521 31.7603 14.3107 29.9803 13.5354C28.2218 12.7386 26.0022 12.3401 23.3216 12.3401H13.9286V67.0632H0ZM35.5775 36.9558L51.9509 67.0632H36.5747L20.5552 36.9558H35.5775Z" fill="white"/>
<path d="M166.661 67.0632H143.307V0.904513H166.854C173.481 0.904513 179.185 2.22898 183.967 4.87791C188.749 7.5053 192.427 11.2849 195.001 16.2166C197.596 21.1484 198.893 27.0492 198.893 33.9192C198.893 40.8108 197.596 46.7332 195.001 51.6865C192.427 56.6397 188.728 60.4408 183.903 63.0898C179.099 65.7387 173.352 67.0632 166.661 67.0632ZM157.236 55.0784H166.082C170.199 55.0784 173.663 54.3462 176.472 52.8817C179.303 51.3957 181.426 49.1021 182.841 46.001C184.278 42.8782 184.997 38.851 184.997 33.9192C184.997 29.0306 184.278 25.0356 182.841 21.9344C181.426 18.8333 179.314 16.5504 176.504 15.086C173.695 13.6215 170.232 12.8893 166.114 12.8893H157.236V55.0784Z" fill="white"/>
<path d="M249.903 0.904513H263.832V43.8689C263.832 48.693 262.684 52.914 260.39 56.5321C258.116 60.1501 254.932 62.9713 250.836 64.9957C246.74 66.9986 241.968 68 236.521 68C231.053 68 226.27 66.9986 222.174 64.9957C218.078 62.9713 214.894 60.1501 212.621 56.5321C210.347 52.914 209.211 48.693 209.211 43.8689V0.904513H223.139V42.6736C223.139 45.1933 223.686 47.4331 224.78 49.3929C225.895 51.3526 227.461 52.8925 229.476 54.0123C231.492 55.1322 233.841 55.6922 236.521 55.6922C239.223 55.6922 241.572 55.1322 243.566 54.0123C245.582 52.8925 247.137 51.3526 248.23 49.3929C249.345 47.4331 249.903 45.1933 249.903 42.6736V0.904513Z" fill="white"/>
<path d="M318.975 22.2898C318.525 20.7177 317.892 19.3286 317.077 18.1226C316.262 16.895 315.265 15.8613 314.086 15.0214C312.928 14.1599 311.598 13.5031 310.097 13.0508C308.617 12.5986 306.977 12.3724 305.175 12.3724C301.808 12.3724 298.849 13.2124 296.297 14.8922C293.766 16.572 291.793 19.0163 290.378 22.2252C288.963 25.4125 288.255 29.3105 288.255 33.9192C288.255 38.5279 288.952 42.4475 290.346 45.6779C291.74 48.9083 293.713 51.3742 296.265 53.0755C298.817 54.7553 301.83 55.5952 305.304 55.5952C308.456 55.5952 311.148 55.0353 313.378 53.9154C315.63 52.774 317.345 51.1696 318.525 49.1021C319.726 47.0347 320.326 44.5903 320.326 41.7691L323.157 42.1891H306.172V31.658H333.74V39.9924C333.74 45.8071 332.518 50.8035 330.073 54.9815C327.628 59.1379 324.261 62.3468 319.972 64.6081C315.683 66.8478 310.772 67.9677 305.239 67.9677C299.063 67.9677 293.638 66.6002 288.963 63.8651C284.288 61.1085 280.642 57.1997 278.026 52.1387C275.431 47.0562 274.133 41.0261 274.133 34.0485C274.133 28.686 274.905 23.905 276.449 19.7055C278.015 15.4844 280.202 11.9094 283.012 8.98052C285.821 6.05162 289.091 3.82264 292.823 2.29359C296.554 0.764529 300.597 0 304.95 0C308.681 0 312.156 0.549169 315.372 1.64751C318.589 2.72431 321.441 4.25337 323.929 6.23468C326.438 8.21599 328.486 10.5742 330.073 13.3093C331.66 16.0228 332.679 19.0163 333.129 22.2898H318.975Z" fill="white"/>
<path d="M353.523 67.0632H338.597L361.34 0.904513H379.29L402 67.0632H387.074L370.572 16.0228H370.057L353.523 67.0632ZM352.59 41.0584H387.846V51.9772H352.59V41.0584Z" fill="white"/>
<path d="M128.028 0.969124C119.385 0.969123 110.826 2.6787 102.841 6.00023C94.8561 9.32177 87.6007 14.1902 81.4892 20.3276C75.3777 26.465 70.5298 33.7512 67.2222 41.7701C63.9147 49.789 62.2124 58.3836 62.2124 67.0632H76.9091C76.9091 60.3218 78.2313 53.6464 80.8003 47.4181C83.3692 41.1899 87.1346 35.5307 91.8814 30.7638C96.6281 25.9969 102.263 22.2156 108.465 19.6358C114.667 17.056 121.315 15.7282 128.028 15.7282V0.969124Z" fill="white"/>
</svg>
