<svg width="400" height="66" viewBox="0 0 400 66" fill="none" xmlns="http://www.w3.org/2000/svg">
<path d="M11.1518 28.5737H21.9481C30.0047 28.5737 34.0329 25.4914 34.0329 19.3267C34.0329 15.9668 33.1888 13.7025 31.5005 12.5339C29.8121 11.336 27.0279 10.7371 23.1477 10.7371H11.1518V28.5737ZM0 64.992V1.18327H23.3254C26.8798 1.18327 29.9454 1.44622 32.5223 1.97211C35.1289 2.49801 37.4836 3.40372 39.5866 4.68924C41.6896 5.94555 43.2743 7.75697 44.3406 10.1235C45.4069 12.4608 45.94 15.3533 45.94 18.8008C45.94 22.3944 44.8589 25.579 42.6967 28.3546C40.5344 31.1009 37.2763 32.9562 32.9222 33.9203C36.8024 36.0531 39.6607 39.3838 41.4971 43.9124L50.2497 64.992H38.0316L30.6119 46.0159C29.3975 42.8898 28.0794 40.7716 26.6577 39.6614C25.2359 38.5511 23.0885 37.996 20.2154 37.996H11.2851V64.992H0Z" fill="white"/>
<path d="M138.977 64.992V1.18327H157.016C169.959 1.18327 179.63 3.9004 186.028 9.33466C192.426 14.7397 195.625 22.5259 195.625 32.6932C195.625 43.2404 192.485 51.2603 186.206 56.753C179.956 62.2457 170.833 64.992 158.837 64.992H138.977ZM150.262 55.4382H159.415C167.234 55.4382 173.232 53.51 177.409 49.6534C181.585 45.7968 183.673 40.1288 183.673 32.6494C183.673 25.5498 181.555 20.1301 177.32 16.3904C173.114 12.6215 166.686 10.7371 158.037 10.7371H150.262V55.4382Z" fill="white"/>
<path d="M233.923 66C229.776 66 226.133 65.5033 222.993 64.51C219.854 63.5166 217.321 62.2165 215.396 60.6096C213.5 58.9734 211.96 56.9575 210.775 54.5618C209.59 52.1368 208.776 49.668 208.331 47.1554C207.887 44.6428 207.665 41.838 207.665 38.741V1.18327H218.95V39.2231C218.95 41.8526 219.202 44.1753 219.705 46.1912C220.209 48.2072 220.89 49.8579 221.749 51.1434C222.638 52.429 223.719 53.4807 224.993 54.2988C226.296 55.1169 227.658 55.6866 229.08 56.008C230.531 56.3294 232.131 56.49 233.878 56.49C236.129 56.49 238.114 56.2125 239.832 55.6574C241.58 55.1023 243.149 54.1965 244.541 52.9402C245.934 51.6547 247 49.8579 247.74 47.5498C248.481 45.2417 248.851 42.4515 248.851 39.1793V1.18327H260.136V38.7849C260.136 41.8526 259.929 44.6282 259.514 47.1116C259.1 49.595 258.3 52.0491 257.115 54.4741C255.96 56.8991 254.434 58.9296 252.539 60.5657C250.643 62.2019 248.111 63.5166 244.941 64.51C241.802 65.5033 238.129 66 233.923 66Z" fill="white"/>
<path d="M305.276 66C294.643 66 286.453 63.1368 280.707 57.4104C274.99 51.6839 272.132 43.927 272.132 34.1394C272.132 30.4874 272.591 26.9814 273.509 23.6215C274.457 20.2324 275.879 17.1062 277.775 14.243C279.7 11.3798 282.01 8.89641 284.706 6.79283C287.401 4.66003 290.6 2.99469 294.302 1.79681C298.035 0.598938 302.078 0 306.432 0C309.482 0 312.252 0.219123 314.74 0.657371C317.258 1.0664 319.405 1.66534 321.182 2.45418C322.959 3.24303 324.277 3.9004 325.136 4.42629C325.995 4.92297 326.943 5.56574 327.98 6.35458L323.448 14.1554C319.213 11.1169 313.555 9.59761 306.476 9.59761C302.744 9.59761 299.397 10.2842 296.435 11.6574C293.473 13.0305 291.103 14.8712 289.326 17.1793C287.549 19.4874 286.201 22.0438 285.283 24.8486C284.365 27.6534 283.906 30.5896 283.906 33.6574C283.906 37.0173 284.365 40.085 285.283 42.8606C286.201 45.6361 287.549 48.0465 289.326 50.0916C291.103 52.1076 293.384 53.6853 296.168 54.8247C298.982 55.9349 302.196 56.49 305.81 56.49C309.394 56.49 313.081 55.9349 316.873 54.8247V39.749H301.767V30.239H328.335V61.1355C320.96 64.3785 313.274 66 305.276 66Z" fill="white"/>
<path d="M359.081 39.0478H376.408C373.002 29.085 370.143 20.8021 367.833 14.1992C365.908 19.7211 362.99 28.004 359.081 39.0478ZM336.333 64.992L362.324 1.18327H373.787L400 64.992H387.249L380.984 49.4343H354.86L348.728 64.992H336.333Z" fill="white"/>
<path d="M61.5385 64.992C61.5385 48.0585 68.4079 32.1092 80.6355 20.1354C92.8632 8.16159 109.799 1.18327 127.092 1.18327V12.6759C112.912 12.6759 98.961 18.4434 88.9343 28.2619C78.9077 38.0804 73.2747 51.1066 73.2747 64.992H61.5385Z" fill="white"/>
</svg>
