<?xml version="1.0" standalone="no"?>
<!DOCTYPE svg PUBLIC "-//W3C//DTD SVG 20010904//EN"
 "http://www.w3.org/TR/2001/REC-SVG-20010904/DTD/svg10.dtd">
<svg version="1.0" xmlns="http://www.w3.org/2000/svg"
 width="700.000000pt" height="700.000000pt" viewBox="0 0 700.000000 700.000000"
 preserveAspectRatio="xMidYMid meet">
<metadata>
Created by potrace 1.14, written by Peter Selinger 2001-2017
</metadata>
<g transform="translate(0.000000,700.000000) scale(0.100000,-0.100000)"
fill="#000000" stroke="none">
<path d="M6427 6614 c-1 -1 -67 -4 -147 -8 -80 -4 -165 -9 -190 -11 -25 -2
-72 -7 -105 -10 -136 -14 -427 -55 -495 -71 -14 -3 -36 -8 -50 -10 -14 -2 -45
-9 -70 -14 -25 -5 -58 -12 -75 -15 -24 -4 -307 -74 -365 -90 -710 -200 -1418
-546 -2009 -983 -101 -74 -294 -226 -327 -257 -6 -5 -38 -32 -70 -60 -228
-195 -549 -528 -762 -791 -196 -243 -436 -598 -595 -886 -291 -524 -515 -1119
-641 -1703 -19 -88 -37 -176 -40 -195 -3 -19 -7 -44 -10 -55 -2 -11 -9 -54
-16 -95 -6 -41 -13 -86 -16 -100 -2 -14 -6 -50 -10 -80 -3 -30 -7 -66 -10 -80
-2 -14 -6 -59 -10 -100 -3 -41 -8 -86 -10 -100 -6 -35 -18 -298 -18 -402 -1
-59 3 -91 12 -100 10 -10 146 -13 673 -14 769 -2 701 -12 705 107 3 97 14 287
19 324 2 17 6 59 10 95 25 258 88 568 171 850 347 1173 1134 2179 2189 2797
168 99 344 188 540 273 28 12 64 28 80 35 59 26 335 125 422 150 172 52 486
126 585 139 18 2 62 9 98 15 110 17 135 20 196 26 32 3 73 7 89 10 38 6 238
17 332 19 122 2 110 -70 109 701 -1 514 -4 667 -13 676 -10 10 -165 22 -176
13z"/>
</g>
</svg>
