<svg width="24" height="24" viewBox="0 0 24 24" fill="none" xmlns="http://www.w3.org/2000/svg">
<path d="M19.97 21.385L16.614 18.029C15.166 18.689 13.591 19.02 12 19.002C10.36 19.022 8.737 18.668 7.254 17.967C6.10467 17.4062 5.07262 16.6318 4.213 15.685C3.30047 14.7068 2.58328 13.5633 2.1 12.316L2 12.002L2.105 11.686C2.82781 9.84224 4.04426 8.23312 5.621 7.03495L3 4.41395L4.413 3.00195L21.382 19.971L19.972 21.385H19.97V21.385ZM7.036 8.45095C5.75792 9.34687 4.74865 10.5747 4.117 12.002C4.77892 13.5291 5.8843 14.8223 7.28986 15.7138C8.69542 16.6053 10.3364 17.0541 12 17.002C13.0498 17.0106 14.0936 16.8415 15.087 16.502L13.287 14.702C12.887 14.898 12.447 15.001 12 15.002C11.2059 14.997 10.4457 14.6793 9.88418 14.1178C9.32265 13.5562 9.00498 12.7961 9 12.002C9 11.555 9.103 11.114 9.3 10.712L7.036 8.45095ZM19.852 15.612L18.46 14.221C19.0456 13.5589 19.5256 12.8104 19.883 12.002C19.222 10.4741 18.1168 9.18035 16.711 8.2887C15.3053 7.39705 13.6639 6.94872 12 7.00195C11.753 7.00195 11.505 7.01095 11.265 7.02795L9.5 5.26095C10.322 5.08495 11.16 4.99795 12 5.00195C13.64 4.98195 15.263 5.33595 16.746 6.03695C17.896 6.59695 18.927 7.37195 19.787 8.31895C20.6991 9.29592 21.4163 10.438 21.9 11.684L22 12.002L21.895 12.318C21.4268 13.536 20.7342 14.6554 19.853 15.618L19.852 15.612V15.612Z" fill="white"/>
</svg>
