<svg width="24" height="24" viewBox="0 0 24 24" fill="none" xmlns="http://www.w3.org/2000/svg">
<path d="M21 10V3.00002L18.36 5.64002C17.5272 4.80125 16.5362 4.13602 15.4445 3.68286C14.3528 3.2297 13.182 2.99761 12 3.00002C10.22 3.00002 8.47991 3.52786 6.99987 4.51679C5.51983 5.50573 4.36627 6.91133 3.68508 8.55587C3.0039 10.2004 2.82567 12.01 3.17293 13.7558C3.5202 15.5017 4.37737 17.1053 5.63604 18.364C6.89471 19.6227 8.49836 20.4798 10.2442 20.8271C11.99 21.1744 13.7996 20.9961 15.4442 20.3149C17.0887 19.6337 18.4943 18.4802 19.4832 17.0002C20.4722 15.5201 21 13.7801 21 12H19C19 15.86 15.86 19 12 19C8.14 19 5 15.86 5 12C5 8.14002 8.14 5.00002 12 5.00002C13.93 5.00002 15.68 5.79002 16.95 7.05002L14 10H21Z" fill="white"/>
</svg>
